<svg width="315" height="123" viewBox="0 0 315 123" fill="none" xmlns="http://www.w3.org/2000/svg">
<g filter="url(#filter0_ddddd_7_54)">
<rect x="12" y="9" width="291" height="69" rx="34.5" fill="url(#paint0_linear_7_54)"/>
<g clip-path="url(#clip0_7_54)">
<path fill-rule="evenodd" clip-rule="evenodd" d="M284.25 28.6602C284.25 36.7244 272.256 64.5 246 64.5L68.25 64.5C41.9936 64.5 30 36.7244 30 28.6602C30 25.0749 32.0504 26.0005 36.778 28.1346L36.778 28.1346C42.6837 30.8005 52.7671 35.3522 68.25 35.3522V35.25H246V35.3522C261.483 35.3522 271.566 30.8005 277.472 28.1346C282.2 26.0005 284.25 25.0749 284.25 28.6602Z" fill="url(#paint1_linear_7_54)"/>
</g>
<g filter="url(#filter1_dd_7_54)">
<path d="M78.3558 63.5C77.5278 63.5 76.8078 63.194 76.1958 62.582C75.5838 61.97 75.2778 61.25 75.2778 60.422V27.158C75.2778 26.33 75.5838 25.61 76.1958 24.998C76.8078 24.386 77.5278 24.08 78.3558 24.08H81.4338C82.3698 24.08 83.2158 24.332 83.9718 24.836C84.7278 25.34 85.2858 26.024 85.6458 26.888L94.0158 47.246C94.0158 47.282 94.0338 47.3 94.0698 47.3C94.1058 47.3 94.1238 47.282 94.1238 47.246L102.494 26.888C102.854 26.024 103.412 25.34 104.168 24.836C104.924 24.332 105.77 24.08 106.706 24.08H110C110.828 24.08 111.548 24.386 112.16 24.998C112.772 25.61 113.078 26.33 113.078 27.158V60.422C113.078 61.25 112.772 61.97 112.16 62.582C111.548 63.194 110.828 63.5 110 63.5H107.408C106.58 63.5 105.86 63.194 105.248 62.582C104.672 61.97 104.384 61.25 104.384 60.422V39.416C104.384 39.38 104.366 39.362 104.33 39.362C104.258 39.362 104.222 39.38 104.222 39.416L99.0378 51.674C98.6778 52.538 98.1018 53.222 97.3098 53.726C96.5538 54.23 95.7078 54.482 94.7718 54.482H93.3678C92.4318 54.482 91.5678 54.23 90.7758 53.726C90.0198 53.222 89.4618 52.538 89.1018 51.674L83.9178 39.416C83.9178 39.38 83.8818 39.362 83.8098 39.362C83.7738 39.362 83.7558 39.38 83.7558 39.416V60.422C83.7558 61.25 83.4498 61.97 82.8378 62.582C82.2618 63.194 81.5598 63.5 80.7318 63.5H78.3558ZM150.962 49.19C150.962 59.09 145.922 64.04 135.842 64.04C125.762 64.04 120.722 59.09 120.722 49.19V27.158C120.722 26.33 121.028 25.61 121.64 24.998C122.252 24.386 122.972 24.08 123.8 24.08H126.932C127.76 24.08 128.48 24.386 129.092 24.998C129.704 25.61 130.01 26.33 130.01 27.158V49.838C130.01 52.286 130.478 54.032 131.414 55.076C132.35 56.12 133.862 56.642 135.95 56.642C138.038 56.642 139.55 56.12 140.486 55.076C141.422 54.032 141.89 52.286 141.89 49.838V27.158C141.89 26.33 142.196 25.61 142.808 24.998C143.42 24.386 144.14 24.08 144.968 24.08H147.884C148.712 24.08 149.432 24.386 150.044 24.998C150.656 25.61 150.962 26.33 150.962 27.158V49.19ZM161.729 63.5C160.901 63.5 160.181 63.194 159.569 62.582C158.957 61.97 158.651 61.25 158.651 60.422V27.158C158.651 26.33 158.957 25.61 159.569 24.998C160.181 24.386 160.901 24.08 161.729 24.08H165.077C165.905 24.08 166.607 24.386 167.183 24.998C167.795 25.61 168.101 26.33 168.101 27.158V55.454C168.101 55.742 168.263 55.886 168.587 55.886H181.709C182.537 55.886 183.257 56.192 183.869 56.804C184.481 57.416 184.787 58.136 184.787 58.964V60.422C184.787 61.25 184.481 61.97 183.869 62.582C183.257 63.194 182.537 63.5 181.709 63.5H161.729ZM206.23 32.072L202.288 47.57C202.252 47.678 202.27 47.786 202.342 47.894C202.45 47.966 202.558 48.002 202.666 48.002H209.902C210.01 48.002 210.1 47.966 210.172 47.894C210.28 47.786 210.316 47.678 210.28 47.57L206.338 32.072C206.338 32.036 206.32 32.018 206.284 32.018C206.248 32.018 206.23 32.036 206.23 32.072ZM191.812 63.5C191.056 63.5 190.444 63.194 189.976 62.582C189.544 61.97 189.454 61.304 189.706 60.584L200.614 26.996C200.902 26.132 201.406 25.43 202.126 24.89C202.882 24.35 203.71 24.08 204.61 24.08H208.174C209.11 24.08 209.956 24.35 210.712 24.89C211.468 25.43 211.972 26.132 212.224 26.996L223.078 60.584C223.33 61.304 223.222 61.97 222.754 62.582C222.322 63.194 221.728 63.5 220.972 63.5H217.354C216.454 63.5 215.644 63.23 214.924 62.69C214.204 62.114 213.736 61.394 213.52 60.53L212.224 55.4C212.188 55.112 212.008 54.968 211.684 54.968H200.884C200.596 54.968 200.416 55.112 200.344 55.4L199.048 60.53C198.832 61.394 198.364 62.114 197.644 62.69C196.924 63.23 196.114 63.5 195.214 63.5H191.812ZM231.883 63.5C231.055 63.5 230.335 63.194 229.723 62.582C229.147 61.97 228.859 61.25 228.859 60.422V27.158C228.859 26.33 229.147 25.61 229.723 24.998C230.335 24.386 231.055 24.08 231.883 24.08H235.879C236.707 24.08 237.409 24.386 237.985 24.998C238.597 25.61 238.903 26.33 238.903 27.158V60.422C238.903 61.25 238.597 61.97 237.985 62.582C237.409 63.194 236.707 63.5 235.879 63.5H231.883Z" fill="white"/>
</g>
<ellipse cx="268.092" cy="41.5919" rx="9" ry="18" transform="rotate(-45 268.092 41.5919)" fill="#B8E773"/>
<ellipse cx="41.25" cy="45" rx="9" ry="11.25" transform="rotate(30 41.25 45)" fill="#B8E773"/>
<rect x="16.5" y="13.5" width="282" height="60" rx="30" stroke="url(#paint2_linear_7_54)" stroke-width="9"/>
</g>
<defs>
<filter id="filter0_ddddd_7_54" x="0.75" y="0.75" width="313.5" height="121.5" filterUnits="userSpaceOnUse" color-interpolation-filters="sRGB">
<feFlood flood-opacity="0" result="BackgroundImageFix"/>
<feColorMatrix in="SourceAlpha" type="matrix" values="0 0 0 0 0 0 0 0 0 0 0 0 0 0 0 0 0 0 127 0" result="hardAlpha"/>
<feOffset/>
<feColorMatrix type="matrix" values="0 0 0 0 0 0 0 0 0 0 0 0 0 0 0 0 0 0 0.24 0"/>
<feBlend mode="normal" in2="BackgroundImageFix" result="effect1_dropShadow_7_54"/>
<feColorMatrix in="SourceAlpha" type="matrix" values="0 0 0 0 0 0 0 0 0 0 0 0 0 0 0 0 0 0 127 0" result="hardAlpha"/>
<feOffset dy="2.25"/>
<feGaussianBlur stdDeviation="2.25"/>
<feColorMatrix type="matrix" values="0 0 0 0 0 0 0 0 0 0 0 0 0 0 0 0 0 0 0.24 0"/>
<feBlend mode="normal" in2="effect1_dropShadow_7_54" result="effect2_dropShadow_7_54"/>
<feColorMatrix in="SourceAlpha" type="matrix" values="0 0 0 0 0 0 0 0 0 0 0 0 0 0 0 0 0 0 127 0" result="hardAlpha"/>
<feOffset dy="6.75"/>
<feGaussianBlur stdDeviation="3.375"/>
<feColorMatrix type="matrix" values="0 0 0 0 0 0 0 0 0 0 0 0 0 0 0 0 0 0 0.2 0"/>
<feBlend mode="normal" in2="effect2_dropShadow_7_54" result="effect3_dropShadow_7_54"/>
<feColorMatrix in="SourceAlpha" type="matrix" values="0 0 0 0 0 0 0 0 0 0 0 0 0 0 0 0 0 0 127 0" result="hardAlpha"/>
<feOffset dy="15.75"/>
<feGaussianBlur stdDeviation="4.5"/>
<feColorMatrix type="matrix" values="0 0 0 0 0 0 0 0 0 0 0 0 0 0 0 0 0 0 0.12 0"/>
<feBlend mode="normal" in2="effect3_dropShadow_7_54" result="effect4_dropShadow_7_54"/>
<feColorMatrix in="SourceAlpha" type="matrix" values="0 0 0 0 0 0 0 0 0 0 0 0 0 0 0 0 0 0 127 0" result="hardAlpha"/>
<feOffset dy="27"/>
<feGaussianBlur stdDeviation="5.625"/>
<feColorMatrix type="matrix" values="0 0 0 0 0 0 0 0 0 0 0 0 0 0 0 0 0 0 0.04 0"/>
<feBlend mode="normal" in2="effect4_dropShadow_7_54" result="effect5_dropShadow_7_54"/>
<feBlend mode="normal" in="SourceGraphic" in2="effect5_dropShadow_7_54" result="shape"/>
</filter>
<filter id="filter1_dd_7_54" x="57.2778" y="10.58" width="199.625" height="75.96" filterUnits="userSpaceOnUse" color-interpolation-filters="sRGB">
<feFlood flood-opacity="0" result="BackgroundImageFix"/>
<feColorMatrix in="SourceAlpha" type="matrix" values="0 0 0 0 0 0 0 0 0 0 0 0 0 0 0 0 0 0 127 0" result="hardAlpha"/>
<feOffset dy="4.5"/>
<feGaussianBlur stdDeviation="9"/>
<feColorMatrix type="matrix" values="0 0 0 0 0 0 0 0 0 0 0 0 0 0 0 0 0 0 0.25 0"/>
<feBlend mode="normal" in2="BackgroundImageFix" result="effect1_dropShadow_7_54"/>
<feColorMatrix in="SourceAlpha" type="matrix" values="0 0 0 0 0 0 0 0 0 0 0 0 0 0 0 0 0 0 127 0" result="hardAlpha"/>
<feOffset dy="4.5"/>
<feColorMatrix type="matrix" values="0 0 0 0 0.308333 0 0 0 0 0.308333 0 0 0 0 0.308333 0 0 0 0.6 0"/>
<feBlend mode="normal" in2="effect1_dropShadow_7_54" result="effect2_dropShadow_7_54"/>
<feBlend mode="normal" in="SourceGraphic" in2="effect2_dropShadow_7_54" result="shape"/>
</filter>
<linearGradient id="paint0_linear_7_54" x1="157.5" y1="9" x2="157.5" y2="78" gradientUnits="userSpaceOnUse">
<stop stop-color="#96C720"/>
<stop offset="1" stop-color="#618F15"/>
</linearGradient>
<linearGradient id="paint1_linear_7_54" x1="157.125" y1="26.25" x2="157.125" y2="64.5" gradientUnits="userSpaceOnUse">
<stop stop-color="#569413"/>
<stop offset="1" stop-color="#4F8C12"/>
</linearGradient>
<linearGradient id="paint2_linear_7_54" x1="157.5" y1="9" x2="157.5" y2="78" gradientUnits="userSpaceOnUse">
<stop stop-color="#6E6F44"/>
<stop offset="1" stop-color="#55451B"/>
</linearGradient>
<clipPath id="clip0_7_54">
<rect width="255" height="47.25" fill="white" transform="translate(30 17.25)"/>
</clipPath>
</defs>
</svg>
